<svg width="24" height="24" viewBox="0 0 24 24" fill="none" xmlns="http://www.w3.org/2000/svg">
<path d="M19 4H18.492L16.308 1.168C15.7377 0.434108 14.8614 0.00336957 13.932 0L10.068 2.38419e-07C9.13856 0.00336981 8.26233 0.434108 7.692 1.168L5.508 4H5C2.23995 4.00331 0.00330591 6.23995 0 9V19C0.00330687 21.7601 2.23995 23.9967 5 24H19C21.7601 23.9967 23.9967 21.7601 24 19V9C23.9967 6.23995 21.7601 4.00331 19 4ZM9.276 2.39C9.46581 2.14492 9.75801 2.00103 10.068 2H13.932C14.2419 2.00133 14.534 2.14516 14.724 2.39L15.966 4H8.034L9.276 2.39ZM22 19C22 20.6569 20.6569 22 19 22H5C3.34315 22 2 20.6569 2 19V9C2 7.34315 3.34315 6 5 6H19C20.6569 6 22 7.34315 22 9V19Z" fill="#00929C"/>
<path d="M12 8C8.68629 8 6 10.6863 6 14C6 17.3137 8.68629 20 12 20C15.3137 20 18 17.3137 18 14C17.9967 10.6877 15.3123 8.00331 12 8ZM12 18C9.79086 18 8 16.2091 8 14C8 11.7909 9.79086 10 12 10C14.2091 10 16 11.7909 16 14C16 16.2091 14.2091 18 12 18Z" fill="#00929C"/>
</svg>
