<svg width="24" height="13" viewBox="0 0 24 13" fill="none" xmlns="http://www.w3.org/2000/svg">
<path d="M0.877459 4.20625L4.74789 0.295831C4.93567 0.106497 5.19129 0 5.45796 0C5.72463 0 5.98025 0.106497 6.16804 0.295831C6.55581 0.685909 6.55581 1.3159 6.16804 1.70598L2.60765 5.29637H22.9999C23.5522 5.29637 24 5.74414 24 6.29648C24 6.84882 23.5522 7.29659 22.9999 7.29659H2.54764L6.16804 10.907C6.35738 11.0948 6.46387 11.3504 6.46387 11.6171C6.46387 11.8837 6.35738 12.1393 6.16804 12.3271C5.98025 12.5165 5.72463 12.623 5.45796 12.623C5.19129 12.623 4.93567 12.5165 4.74788 12.3271L0.877457 8.44671C-0.292486 7.27532 -0.292486 5.37765 0.877459 4.20625Z" fill="white"/>
</svg>
