<svg width="21" height="25" viewBox="0 0 21 25" fill="none" xmlns="http://www.w3.org/2000/svg">
<path d="M10.473 6.25153C8.17204 6.25153 6.30671 8.11685 6.30671 10.4179C6.30671 12.7189 8.17204 14.5842 10.473 14.5842C12.774 14.5842 14.6394 12.7189 14.6394 10.4179C14.6394 8.11685 12.774 6.25153 10.473 6.25153ZM10.473 12.501C9.32254 12.501 8.38987 11.5684 8.38987 10.4179C8.38987 9.26735 9.32254 8.33469 10.473 8.33469C11.6235 8.33469 12.5562 9.26735 12.5562 10.4179C12.5562 11.5684 11.6235 12.501 10.473 12.501Z" fill="#28292B"/>
<path d="M10.4731 25C8.69342 25.0092 7.01972 24.155 5.98285 22.7086C2.01338 17.233 0 13.1166 0 10.4731C-4.96665e-07 4.68897 4.68897 -9.9333e-07 10.4731 0C16.2572 0 20.9462 4.68897 20.9462 10.4731C20.9462 13.1166 18.9328 17.233 14.9634 22.7086C13.9265 24.155 12.2528 25.0092 10.4731 25ZM10.4731 2.27377C5.94573 2.27894 2.27686 5.94782 2.27169 10.4752C2.27169 12.5688 4.2434 16.4403 7.82228 21.3764C8.43857 22.2253 9.42411 22.7276 10.4731 22.7276C11.5221 22.7276 12.5076 22.2253 13.1239 21.3764C16.7028 16.4403 18.6745 12.5688 18.6745 10.4752C18.6694 5.94781 15.0005 2.27894 10.4731 2.27377Z" fill="#28292B"/>
</svg>
