<svg width="10" height="15" viewBox="0 0 10 15" fill="none" xmlns="http://www.w3.org/2000/svg">
<path fill-rule="evenodd" clip-rule="evenodd" d="M2.34736 7.80675C2.62258 7.1809 2.94288 6.57586 3.30576 5.99642C3.96173 4.9049 4.64859 3.54718 5.28859 2.41733C5.44939 2.13406 5.63788 1.80821 5.78057 1.51856C5.92327 1.22891 6.17457 0.887063 6.27467 0.606996C6.19168 0.491427 6.09314 0.387863 5.98183 0.299241C5.86683 0.192752 5.83062 0.0958403 5.7071 0C5.48027 0.360998 5.28859 0.772069 5.06815 1.14159C4.56659 1.9722 3.9564 3.18086 3.4559 4.01041C2.4975 5.59177 1.51991 7.52454 0.566835 9.12187C-0.0721004 10.1953 -0.391556 10.6958 0.825616 11.2996C1.21324 11.4913 1.60512 11.7255 1.997 11.9215C2.18868 12.0173 2.38568 12.1281 2.57842 12.241C2.77117 12.3538 2.96072 12.4316 3.14707 12.5381C3.50594 12.7436 3.92447 12.9438 4.31209 13.1653L7.24798 14.7104C7.44261 14.8224 7.64554 14.9192 7.85498 15.0001C7.61689 14.617 7.46466 14.1868 7.40878 13.7392C7.38528 13.1427 7.56206 12.5555 7.91097 12.0711C8.25989 11.5867 8.76086 11.233 9.33409 11.0664C9.41076 11.0408 9.43421 11.0355 9.50129 11.0163L9.56837 10.9939C9.62694 10.9705 9.59395 10.9876 9.62271 10.9631L7.79746 10.1718C7.22455 9.92799 2.46236 7.90684 2.35055 7.80993" fill="#FEFEFE"/>
</svg>
