<svg width="21" height="31" viewBox="0 0 21 31" fill="none" xmlns="http://www.w3.org/2000/svg">
<path d="M10.5754 21.4028C12.187 21.4028 13.6977 20.7985 14.8057 19.6402C15.9136 18.5323 16.5179 17.0719 16.4675 15.5108V5.89207C16.4675 2.6187 13.7985 0 10.5754 0C7.30207 0 4.68337 2.66906 4.68337 5.89207V15.4604C4.63301 18.7338 7.30207 21.4028 10.5754 21.4028ZM6.3956 5.89208C6.3956 3.62589 8.2589 1.76259 10.5251 1.76259C12.7913 1.76259 14.6546 3.62589 14.6546 5.89208V15.5108C14.6546 16.6187 14.2517 17.6259 13.4963 18.4316C12.6905 19.2374 11.633 19.6906 10.5251 19.6906C8.2589 19.6906 6.3956 17.8273 6.3956 15.5611L6.3956 5.89208Z" fill="#00929C"/>
<path d="M21 15.2085C21 14.7049 20.5971 14.302 20.0935 14.302C19.5899 14.302 19.187 14.7049 19.187 15.2085C19.187 19.9926 15.3093 23.8703 10.4748 23.8703C5.69064 23.8703 1.81295 19.9926 1.81295 15.2085C1.81295 14.7049 1.41007 14.302 0.906473 14.302C0.402877 14.302 0 14.7049 0 15.2085C0 20.6473 4.17985 25.1293 9.51797 25.5826V29.1581H5.99279C5.4892 29.1581 5.08632 29.561 5.08632 30.0646C5.08632 30.5682 5.4892 30.971 5.99279 30.971H14.8057C15.3093 30.971 15.7122 30.5682 15.7122 30.0646C15.7122 29.561 15.3093 29.1581 14.8057 29.1581H11.2806V25.5826C16.7698 25.1797 21 20.6977 21 15.2085Z" fill="#00929C"/>
</svg>
