<svg width="24" height="13" viewBox="0 0 24 13" fill="none" xmlns="http://www.w3.org/2000/svg">
<path d="M0.877452 4.20622L4.74785 0.295828C4.93564 0.106496 5.19126 0 5.45792 0C5.72459 0 5.98021 0.106497 6.16799 0.295828C6.55576 0.685904 6.55576 1.31589 6.168 1.70597L2.60763 5.29633H22.9997C23.5521 5.29633 23.9998 5.74409 23.9998 6.29643C23.9998 6.84877 23.5521 7.29653 22.9997 7.29653H2.54762L6.16799 10.9069C6.35733 11.0947 6.46382 11.3503 6.46382 11.617C6.46382 11.8836 6.35733 12.1393 6.16799 12.327C5.98021 12.5164 5.72458 12.6229 5.45792 12.6229C5.19126 12.6229 4.93563 12.5164 4.74785 12.327L0.87745 8.44665C-0.292484 7.27526 -0.292484 5.37761 0.877452 4.20622Z" fill="#28292B"/>
</svg>
