<svg width="30" height="28" viewBox="0 0 30 28" fill="none" xmlns="http://www.w3.org/2000/svg">
<path d="M7.91558 17.8136C8.19192 17.6542 8.2865 17.3005 8.12712 17.0242C7.96751 16.7481 7.61397 16.6532 7.33766 16.8126C7.06133 16.9722 6.96652 17.326 7.12612 17.6021C7.28551 17.8784 7.63927 17.9732 7.91558 17.8136Z" fill="#28292B"/>
<path d="M5.54722 21.8026L8.45765 26.8439C9.0857 27.9329 10.4985 28.3361 11.6157 27.6902C12.7212 27.0513 13.1012 25.6388 12.4616 24.5324L10.7278 21.529L12.2293 20.6621C12.5056 20.5022 12.6005 20.1489 12.4409 19.8726L11.6893 18.5709C11.7789 18.5535 12.3682 18.438 22.759 16.3996C24.0435 16.3299 24.8131 14.925 24.1643 13.8019L22.2436 10.4752L23.471 8.6161C23.5915 8.43324 23.5988 8.19823 23.4893 8.0086L22.3334 6.00662C22.2239 5.81699 22.016 5.70592 21.7981 5.71879L19.5747 5.85221L17.4424 2.15888C17.1336 1.62385 16.5803 1.29989 15.9626 1.29221C15.9552 1.29199 15.948 1.29199 15.9405 1.29199C15.3436 1.29199 14.8018 1.58908 14.4808 2.09138L6.9311 11.7089L2.02297 14.5426C0.0925499 15.6567 -0.576134 18.1332 0.542252 20.0688C1.56402 21.8387 3.71816 22.5349 5.54722 21.8026ZM11.4609 25.1105C11.7801 25.6627 11.5911 26.3693 11.0373 26.6892C10.4818 27.0105 9.77425 26.8132 9.45864 26.2662L6.56899 21.2605L8.57098 20.1047C11.9153 25.898 11.4071 25.0178 11.4609 25.1105ZM10.1499 20.5278L9.57197 19.5268L10.573 18.9488L11.1509 19.9498L10.1499 20.5278ZM21.511 6.89383L22.3097 8.27725L21.5975 9.3559L20.2208 6.97126L21.511 6.89383ZM15.4475 2.72507C15.6025 2.47133 15.8486 2.44514 15.9484 2.44784C16.0471 2.44897 16.2929 2.47968 16.4412 2.73658L23.1633 14.3798C23.3823 14.7588 23.1161 15.2354 22.677 15.2463C22.5982 15.2481 22.5619 15.2623 22.36 15.3L15.2495 2.98401C15.3987 2.79212 15.4179 2.77361 15.4475 2.72507ZM14.4803 3.96378L21.1611 15.5352L11.0784 17.5128L8.01269 12.2029L14.4803 3.96378ZM1.54325 19.4909C1.2895 19.0518 1.1554 18.5533 1.1554 18.049C1.1554 17.0182 1.7094 16.0583 2.60091 15.5436L7.10538 12.9429L9.99504 17.9478L5.49056 20.5487C4.11052 21.3452 2.33993 20.8707 1.54325 19.4909Z" fill="#28292B"/>
<path d="M6.12513 18.1802C5.96552 17.9039 5.61199 17.8091 5.33567 17.9687L4.33467 18.5466C4.0588 18.706 3.70459 18.611 3.54521 18.3351C3.3856 18.0588 3.03207 17.964 2.75575 18.1236C2.47942 18.2832 2.38461 18.6367 2.54422 18.913C3.01988 19.737 4.08093 20.0276 4.9126 19.5476L5.9136 18.9697C6.18992 18.8101 6.28474 18.4568 6.12513 18.1802Z" fill="#28292B"/>
<path d="M28.731 2.52811L25.5107 4.32014C25.2318 4.47546 25.1314 4.82741 25.2867 5.10621C25.4416 5.38479 25.7933 5.4857 26.0728 5.33016L29.2929 3.53813C29.572 3.38281 29.6722 3.03086 29.5169 2.75206C29.3618 2.47302 29.0098 2.3728 28.731 2.52811Z" fill="#28292B"/>
<path d="M28.3933 8.51371L26.1604 7.91546C25.852 7.83284 25.5351 8.0157 25.4524 8.32408C25.3698 8.63245 25.5529 8.9492 25.8613 9.03182L28.0944 9.63007C28.4046 9.71337 28.72 9.52758 28.8021 9.22145C28.8848 8.91308 28.7017 8.59612 28.3933 8.51371Z" fill="#28292B"/>
<path d="M22.782 0.428463L22.1831 2.66162C22.1004 2.96999 22.2833 3.28673 22.5916 3.36958C22.8998 3.45198 23.2168 3.26957 23.2996 2.96096L23.8983 0.727812C23.981 0.419433 23.7981 0.102475 23.4897 0.0198492C23.1816 -0.0627766 22.8646 0.120084 22.782 0.428463Z" fill="#28292B"/>
</svg>
