<svg width="49" height="49" viewBox="0 0 49 49" fill="none" xmlns="http://www.w3.org/2000/svg">
<path d="M24.5 0C10.9932 0 0 10.9932 0 24.5C0 38.0067 10.9932 48.9999 24.5 48.9999C38.0068 48.9999 49 38.0067 49 24.5C49 10.9932 38.0068 0 24.5 0ZM24.5 4.08329C35.8001 4.08329 44.9166 13.2 44.9166 24.5C44.9166 35.7999 35.8001 44.9166 24.5 44.9166C13.2 44.9166 4.0833 35.7999 4.0833 24.5C4.0833 13.2 13.2 4.08329 24.5 4.08329ZM16.3333 15.5166C15.2057 15.5166 14.2916 16.4307 14.2916 17.5583C14.2916 18.6858 15.2057 19.5999 16.3333 19.5999C17.4609 19.5999 18.375 18.6858 18.375 17.5583C18.375 16.4307 17.4609 15.5166 16.3333 15.5166ZM32.6667 15.5166C31.5391 15.5166 30.625 16.4307 30.625 17.5583C30.625 18.6858 31.5391 19.5999 32.6667 19.5999C33.7943 19.5999 34.7083 18.6858 34.7083 17.5583C34.7083 16.4307 33.7943 15.5166 32.6667 15.5166ZM24.5 27.5353C20.1267 27.5353 16.0779 29.873 13.8913 33.6603C13.3127 34.6283 13.6284 35.882 14.5964 36.4606C14.8904 36.6363 15.2238 36.7353 15.5661 36.7483C16.3341 36.7776 17.0535 36.3733 17.4275 35.702C18.888 33.1724 21.5791 31.6187 24.5 31.6187C27.421 31.6187 30.1121 33.1724 31.5725 35.702C31.9364 36.3537 32.6269 36.7549 33.3733 36.7483C34.501 36.7383 35.407 35.8161 35.397 34.6885C35.3938 34.3262 35.2944 33.9714 35.1087 33.6603C32.9221 29.873 28.8732 27.5353 24.5 27.5353Z" fill="#FD0707"/>
</svg>
