<svg width="24" height="22" viewBox="0 0 24 22" fill="none" xmlns="http://www.w3.org/2000/svg">
<path d="M19 0H5C2.23995 0.00330591 0.00330687 2.23995 0 5V17C0.00330544 19.7601 2.23995 21.9967 5 22L19 22C21.7601 21.9967 23.9967 19.7601 24 17V5C23.9967 2.23995 21.7601 0.00330639 19 0ZM5 2H19C20.225 2.00241 21.3255 2.7494 21.78 3.887L14.122 11.546C12.9487 12.7146 11.0513 12.7146 9.878 11.546L2.22 3.887C2.67448 2.7494 3.77498 2.00241 5 2ZM19 20H5C3.34315 20 2 18.6569 2 17V6.5L8.464 12.96C10.4183 14.9094 13.5817 14.9094 15.536 12.96L22 6.5V17C22 18.6569 20.6569 20 19 20Z" fill="#28292B"/>
</svg>
