<svg width="38" height="34" viewBox="0 0 38 34" fill="none" xmlns="http://www.w3.org/2000/svg">
<path d="M35.6154 1.94997e-06H28.4683C28.1615 1.94997e-06 27.9128 0.248752 27.9128 0.55558C27.9128 0.862408 28.1615 1.11116 28.4683 1.11116H35.6154C36.2777 1.11116 36.8164 1.64992 36.8164 2.31217V23.4222H1.11116V2.31217C1.11116 1.64992 1.64992 1.11116 2.31217 1.11116H25.8756C26.1824 1.11116 26.4311 0.862404 26.4311 0.555578C26.4311 0.248752 26.1824 0 25.8756 0H2.31217C1.03723 0 0 1.03723 0 2.31217V25.1843C0 26.4592 1.03723 27.4964 2.31217 27.4964H7.631C7.93783 27.4964 8.18658 27.2477 8.18658 26.9409C8.18658 26.634 7.93783 26.3853 7.631 26.3853H2.31217C1.64992 26.3853 1.11116 25.8465 1.11116 25.1843V24.5334H36.8164V25.1843C36.8164 25.8465 36.2777 26.3853 35.6154 26.3853H10.1993C9.89243 26.3853 9.64368 26.634 9.64368 26.9409C9.64368 27.2477 9.89243 27.4964 10.1993 27.4964H13.696L13.1475 30.6666H12.1336C11.2146 30.6666 10.4669 31.4142 10.4669 32.3333C10.4669 33.2524 11.2146 34 12.1336 34H25.7939C26.713 34 27.4607 33.2524 27.4607 32.3333C27.4607 31.4142 26.713 30.6666 25.7939 30.6666H24.7801L24.2316 27.4964H35.6153C36.8903 27.4964 37.9275 26.4592 37.9275 25.1843V2.31217C37.9276 1.03723 36.8903 1.94997e-06 35.6154 1.94997e-06ZM23.6524 30.6666H22.1399C21.8331 30.6666 21.5843 30.9153 21.5843 31.2221C21.5843 31.529 21.8331 31.7777 22.1399 31.7777H25.7939C26.1003 31.7777 26.3495 32.0269 26.3495 32.3333C26.3495 32.6397 26.1003 32.8889 25.7939 32.8889H12.1336C11.8273 32.8889 11.5781 32.6397 11.5781 32.3333C11.5781 32.0269 11.8273 31.7777 12.1336 31.7777H19.5463C19.8532 31.7777 20.1019 31.529 20.1019 31.2221C20.1019 30.9153 19.8532 30.6666 19.5463 30.6666H14.2751L14.8237 27.4964H23.104L23.6524 30.6666Z" fill="#28292B"/>
<path d="M30.0545 14.0575C29.8455 14.0575 29.6542 14.1749 29.5593 14.3612L26.9374 19.5143L24.7249 15.1656C24.6301 14.9793 24.4387 14.862 24.2297 14.862C24.0206 14.862 23.8293 14.9793 23.7345 15.1656L22.5351 17.523H20.6201C20.3133 17.523 20.0645 17.7718 20.0645 18.0786C20.0645 18.3854 20.3133 18.6342 20.6201 18.6342H22.8758C23.0848 18.6342 23.2762 18.5168 23.371 18.3305L24.2297 16.6428L26.4422 20.9915C26.537 21.1778 26.7284 21.2951 26.9374 21.2951C27.1465 21.2951 27.3378 21.1778 27.4327 20.9915L30.0545 15.8383L31.3225 18.3306C31.4173 18.5169 31.6087 18.6342 31.8177 18.6342H34.0734C34.3802 18.6342 34.629 18.3855 34.629 18.0786C34.629 17.7718 34.3802 17.5231 34.0734 17.5231H32.1584L30.5497 14.3612C30.4549 14.1749 30.2636 14.0575 30.0545 14.0575Z" fill="#28292B"/>
<path d="M20.6204 12.4115H23.5034C23.8102 12.4115 24.059 12.1628 24.059 11.8559V6.00725C24.059 5.70043 23.8102 5.45168 23.5034 5.45168H20.6204C20.3135 5.45168 20.0648 5.70043 20.0648 6.00725V11.8559C20.0648 12.1628 20.3135 12.4115 20.6204 12.4115ZM21.176 6.56283H22.9478V11.3004H21.176V6.56283Z" fill="#28292B"/>
<path d="M28.8081 7.04111H25.9251C25.6182 7.04111 25.3695 7.28986 25.3695 7.5967V11.8561C25.3695 12.1629 25.6182 12.4116 25.9251 12.4116H28.8081C29.1149 12.4116 29.3636 12.1629 29.3636 11.8561V7.5967C29.3636 7.28986 29.1149 7.04111 28.8081 7.04111ZM28.2525 11.3005H26.4806V8.15227H28.2525V11.3005Z" fill="#28292B"/>
<path d="M34.0735 12.4115C34.3804 12.4115 34.6291 12.1627 34.6291 11.8559V4.54088C34.6291 4.23406 34.3804 3.9853 34.0735 3.9853H31.1905C30.8837 3.9853 30.6349 4.23406 30.6349 4.54088V11.8559C30.6349 12.1627 30.8837 12.4115 31.1905 12.4115H34.0735ZM31.7461 5.09647H33.518V11.3003H31.7461V5.09647Z" fill="#28292B"/>
<path d="M16.4376 10.2704H3.84451C3.53768 10.2704 3.28893 10.5191 3.28893 10.826C3.28893 11.1328 3.53768 11.3815 3.84451 11.3815H16.4376C16.7445 11.3815 16.9932 11.1328 16.9932 10.826C16.9932 10.5191 16.7445 10.2704 16.4376 10.2704Z" fill="#28292B"/>
<path d="M3.84451 14.3328H6.09808C6.40491 14.3328 6.65367 14.084 6.65367 13.7772C6.65367 13.4704 6.40491 13.2216 6.09808 13.2216H3.84451C3.53768 13.2216 3.28893 13.4704 3.28893 13.7772C3.28893 14.084 3.53768 14.3328 3.84451 14.3328Z" fill="#28292B"/>
<path d="M16.4376 13.2216H8.64374C8.33692 13.2216 8.08817 13.4704 8.08817 13.7772C8.08817 14.084 8.33692 14.3328 8.64374 14.3328H16.4376C16.7445 14.3328 16.9932 14.084 16.9932 13.7772C16.9932 13.4704 16.7445 13.2216 16.4376 13.2216Z" fill="#28292B"/>
<path d="M16.4376 3.9853H3.84451C3.53768 3.9853 3.28893 4.23406 3.28893 4.54089C3.28893 4.84771 3.53768 5.09646 3.84451 5.09646H16.4376C16.7445 5.09646 16.9932 4.84771 16.9932 4.54089C16.9932 4.23406 16.7445 3.9853 16.4376 3.9853Z" fill="#28292B"/>
<path d="M3.84451 8.04794H11.6539C11.9607 8.04794 12.2095 7.79919 12.2095 7.49236C12.2095 7.18553 11.9607 6.93678 11.6539 6.93678H3.84451C3.53768 6.93678 3.28893 7.18553 3.28893 7.49236C3.28893 7.79919 3.53768 8.04794 3.84451 8.04794Z" fill="#28292B"/>
<path d="M16.4376 6.93678H14.1995C13.8927 6.93678 13.6439 7.18552 13.6439 7.49235C13.6439 7.79918 13.8927 8.04793 14.1995 8.04793H16.4376C16.7444 8.04793 16.9932 7.79918 16.9932 7.49235C16.9932 7.18552 16.7444 6.93678 16.4376 6.93678Z" fill="#28292B"/>
<path d="M16.9932 16.6927C16.9932 16.3859 16.7445 16.1371 16.4376 16.1371H3.84451C3.53768 16.1371 3.28893 16.3859 3.28893 16.6927C3.28893 16.9996 3.53768 17.2483 3.84451 17.2483H16.4376C16.7445 17.2483 16.9932 16.9996 16.9932 16.6927Z" fill="#28292B"/>
<path d="M3.84451 19.0726C3.53768 19.0726 3.28893 19.3214 3.28893 19.6282C3.28893 19.935 3.53768 20.1838 3.84451 20.1838H9.77069C10.0775 20.1838 10.3263 19.935 10.3263 19.6282C10.3263 19.3214 10.0775 19.0726 9.77069 19.0726H3.84451Z" fill="#28292B"/>
</svg>
