<svg width="49" height="49" viewBox="0 0 49 49" fill="none" xmlns="http://www.w3.org/2000/svg">
<path d="M24.5001 0C10.9935 0 0 10.9932 0 24.5C0 38.0068 10.9935 49 24.5001 49C38.0068 49 48.9998 38.0068 48.9998 24.5C48.9998 10.9932 38.0068 0 24.5001 0ZM24.5001 4.08336C35.8001 4.08336 44.9168 13.2001 44.9168 24.5C44.9168 35.7999 35.8001 44.9166 24.5001 44.9166C13.2002 44.9166 4.08344 35.7999 4.08344 24.5C4.08344 13.2001 13.2002 4.08336 24.5001 4.08336ZM16.3337 15.5167C15.2059 15.5167 14.2918 16.4308 14.2918 17.5584C14.2918 18.6859 15.2059 19.6 16.3337 19.6C17.461 19.6 18.3747 18.6859 18.3747 17.5584C18.3747 16.4308 17.461 15.5167 16.3337 15.5167ZM32.667 15.5167C31.5392 15.5167 30.625 16.4308 30.625 17.5584C30.625 18.6859 31.5392 19.6 32.667 19.6C33.7943 19.6 34.7085 18.6859 34.7085 17.5584C34.7085 16.4308 33.7943 15.5167 32.667 15.5167ZM15.5662 27.5369C14.4394 27.5799 13.5604 28.5282 13.6035 29.6551C13.6167 29.9974 13.7159 30.331 13.8914 30.625C16.0781 34.4123 20.1268 36.75 24.5001 36.75C28.873 36.75 32.9222 34.4123 35.1088 30.625C35.6867 29.6566 35.3699 28.4031 34.4015 27.8253C34.0905 27.6397 33.7356 27.5401 33.3734 27.5369C32.6269 27.5303 31.9366 27.9316 31.5724 28.5833C30.1122 31.1129 27.4211 32.6667 24.5001 32.6667C21.5792 32.6667 18.888 31.1129 17.4278 28.5833C17.0533 27.9121 16.3342 27.5077 15.5662 27.5369Z" fill="white"/>
</svg>
