<svg width="7" height="5" viewBox="0 0 7 5" fill="none" xmlns="http://www.w3.org/2000/svg">
<path fill-rule="evenodd" clip-rule="evenodd" d="M3.90966 4.88873C4.29694 4.85985 4.68122 4.79942 5.05868 4.70807C5.54861 4.62025 6.00592 4.40227 6.38264 4.07697C6.44209 4.01752 6.46265 3.95006 6.5221 3.8849C6.7862 3.59336 6.56899 4.02094 6.86511 3.23321C6.98021 2.94815 7.02264 2.63897 6.98858 2.33345C6.91867 1.72426 6.6503 1.155 6.22486 0.713408C6.00448 0.489462 5.74207 0.311176 5.4527 0.188758C5.16333 0.0663408 4.85269 0.00220429 4.5385 0L2.70922 0.106312C2.27037 0.170957 1.83779 0.272683 1.41613 0.410418C1.04595 0.532225 0.715159 0.750945 0.458073 1.04382C0.186821 1.4156 0.0289821 1.85795 0.00362251 2.31747C-0.0217371 2.77699 0.086467 3.234 0.315161 3.63337C0.4675 3.90384 0.688818 4.12911 0.956555 4.28621C1.55975 4.64366 2.2401 4.85069 2.94016 4.88985L3.90966 4.88873Z" fill="#FEFEFE"/>
</svg>
