<svg width="22" height="24" viewBox="0 0 22 24" fill="none" xmlns="http://www.w3.org/2000/svg">
<path d="M12.9976 24C12.7812 24 12.5707 23.9298 12.3976 23.8L8.3976 20.8C8.1458 20.6111 7.9976 20.3148 7.9976 20V14.38L0.981603 6.487C-0.036195 5.33879 -0.286159 3.70049 0.342928 2.30101C0.972013 0.901536 2.36323 0.000969887 3.8976 2.38419e-07L18.0976 0C19.6318 0.00180054 21.0225 0.902958 21.6509 2.30259C22.2793 3.70221 22.0287 5.34025 21.0106 6.488L13.9976 14.38V23C13.9976 23.5523 13.5499 24 12.9976 24ZM9.9976 19.5L11.9976 21V14C11.9978 13.7552 12.0878 13.5189 12.2506 13.336L19.5186 5.159C20.0136 4.5995 20.1348 3.80185 19.8284 3.12056C19.5219 2.43927 18.8447 2.00079 18.0976 2L3.8976 2C3.15096 2.00113 2.47419 2.43946 2.16781 3.12035C1.86143 3.80124 1.98225 4.59846 2.4766 5.158L9.7456 13.336C9.90802 13.519 9.99768 13.7553 9.9976 14L9.9976 19.5Z" fill="#28292B"/>
</svg>
